<?xml version="1.0" encoding="UTF-8" standalone="no"?>
<!DOCTYPE svg PUBLIC "-//W3C//DTD SVG 1.1//EN"
 "http://www.w3.org/Graphics/SVG/1.1/DTD/svg11.dtd">
<!-- Generated by graphviz version 2.43.0 (0)
 -->
<!-- Title: %3 Pages: 1 -->
<svg width="1667pt" height="548pt"
 viewBox="0.00 0.00 1667.36 548.00" xmlns="http://www.w3.org/2000/svg" xmlns:xlink="http://www.w3.org/1999/xlink">
<g id="graph0" class="graph" transform="scale(1 1) rotate(0) translate(4 544)">
<title>%3</title>
<polygon fill="white" stroke="transparent" points="-4,4 -4,-544 1663.36,-544 1663.36,4 -4,4"/>
<!-- [root] local_file.input_data (expand) -->
<g id="node1" class="node">
<title>[root] local_file.input_data (expand)</title>
<polygon fill="none" stroke="black" points="585.99,-396 427.99,-396 427.99,-360 585.99,-360 585.99,-396"/>
<text text-anchor="middle" x="506.99" y="-374.3" font-family="Times,serif" font-size="14.00">local_file.input_data</text>
</g>
<!-- [root] provider[&quot;registry.terraform.io/hashicorp/local&quot;] -->
<g id="node2" class="node">
<title>[root] provider[&quot;registry.terraform.io/hashicorp/local&quot;]</title>
<polygon fill="none" stroke="black" points="362.99,-324 33.03,-306 362.99,-288 692.94,-306 362.99,-324"/>
<text text-anchor="middle" x="362.99" y="-302.3" font-family="Times,serif" font-size="14.00">provider[&quot;registry.terraform.io/hashicorp/local&quot;]</text>
</g>
<!-- [root] local_file.input_data (expand)&#45;&gt;[root] provider[&quot;registry.terraform.io/hashicorp/local&quot;] -->
<g id="edge5" class="edge">
<title>[root] local_file.input_data (expand)&#45;&gt;[root] provider[&quot;registry.terraform.io/hashicorp/local&quot;]</title>
<path fill="none" stroke="black" d="M471.76,-359.88C451.31,-349.93 425.44,-337.36 404.06,-326.97"/>
<polygon fill="black" stroke="black" points="405.43,-323.74 394.9,-322.51 402.36,-330.03 405.43,-323.74"/>
</g>
<!-- [root] local.file_content (expand) -->
<g id="node6" class="node">
<title>[root] local.file_content (expand)</title>
<ellipse fill="none" stroke="black" cx="871.99" cy="-306" rx="161.37" ry="18"/>
<text text-anchor="middle" x="871.99" y="-302.3" font-family="Times,serif" font-size="14.00">[root] local.file_content (expand)</text>
</g>
<!-- [root] local_file.input_data (expand)&#45;&gt;[root] local.file_content (expand) -->
<g id="edge4" class="edge">
<title>[root] local_file.input_data (expand)&#45;&gt;[root] local.file_content (expand)</title>
<path fill="none" stroke="black" d="M586.19,-361.81C644.68,-350.59 724.28,-335.33 784.62,-323.76"/>
<polygon fill="black" stroke="black" points="785.35,-327.18 794.51,-321.86 784.03,-320.31 785.35,-327.18"/>
</g>
<!-- [root] provider[&quot;registry.terraform.io/hashicorp/random&quot;] -->
<g id="node3" class="node">
<title>[root] provider[&quot;registry.terraform.io/hashicorp/random&quot;]</title>
<polygon fill="none" stroke="black" points="1110.99,-36 760.59,-18 1110.99,0 1461.38,-18 1110.99,-36"/>
<text text-anchor="middle" x="1110.99" y="-14.3" font-family="Times,serif" font-size="14.00">provider[&quot;registry.terraform.io/hashicorp/random&quot;]</text>
</g>
<!-- [root] random_integer.random_length (expand) -->
<g id="node4" class="node">
<title>[root] random_integer.random_length (expand)</title>
<polygon fill="none" stroke="black" points="1230.99,-108 990.99,-108 990.99,-72 1230.99,-72 1230.99,-108"/>
<text text-anchor="middle" x="1110.99" y="-86.3" font-family="Times,serif" font-size="14.00">random_integer.random_length</text>
</g>
<!-- [root] random_integer.random_length (expand)&#45;&gt;[root] provider[&quot;registry.terraform.io/hashicorp/random&quot;] -->
<g id="edge10" class="edge">
<title>[root] random_integer.random_length (expand)&#45;&gt;[root] provider[&quot;registry.terraform.io/hashicorp/random&quot;]</title>
<path fill="none" stroke="black" d="M1110.99,-71.7C1110.99,-63.98 1110.99,-54.71 1110.99,-46.11"/>
<polygon fill="black" stroke="black" points="1114.49,-46.1 1110.99,-36.1 1107.49,-46.1 1114.49,-46.1"/>
</g>
<!-- [root] random_string.random_string (expand) -->
<g id="node5" class="node">
<title>[root] random_string.random_string (expand)</title>
<polygon fill="none" stroke="black" points="1225.99,-180 995.99,-180 995.99,-144 1225.99,-144 1225.99,-180"/>
<text text-anchor="middle" x="1110.99" y="-158.3" font-family="Times,serif" font-size="14.00">random_string.random_string</text>
</g>
<!-- [root] random_string.random_string (expand)&#45;&gt;[root] random_integer.random_length (expand) -->
<g id="edge11" class="edge">
<title>[root] random_string.random_string (expand)&#45;&gt;[root] random_integer.random_length (expand)</title>
<path fill="none" stroke="black" d="M1110.99,-143.7C1110.99,-135.98 1110.99,-126.71 1110.99,-118.11"/>
<polygon fill="black" stroke="black" points="1114.49,-118.1 1110.99,-108.1 1107.49,-118.1 1114.49,-118.1"/>
</g>
<!-- [root] local.input_list (expand) -->
<g id="node7" class="node">
<title>[root] local.input_list (expand)</title>
<ellipse fill="none" stroke="black" cx="871.99" cy="-234" rx="150.57" ry="18"/>
<text text-anchor="middle" x="871.99" y="-230.3" font-family="Times,serif" font-size="14.00">[root] local.input_list (expand)</text>
</g>
<!-- [root] local.file_content (expand)&#45;&gt;[root] local.input_list (expand) -->
<g id="edge1" class="edge">
<title>[root] local.file_content (expand)&#45;&gt;[root] local.input_list (expand)</title>
<path fill="none" stroke="black" d="M871.99,-287.7C871.99,-279.98 871.99,-270.71 871.99,-262.11"/>
<polygon fill="black" stroke="black" points="875.49,-262.1 871.99,-252.1 868.49,-262.1 875.49,-262.1"/>
</g>
<!-- [root] local.input_list (expand)&#45;&gt;[root] random_string.random_string (expand) -->
<g id="edge3" class="edge">
<title>[root] local.input_list (expand)&#45;&gt;[root] random_string.random_string (expand)</title>
<path fill="none" stroke="black" d="M926.22,-217.12C960.86,-206.97 1006.06,-193.73 1043.08,-182.89"/>
<polygon fill="black" stroke="black" points="1044.18,-186.21 1052.79,-180.04 1042.21,-179.5 1044.18,-186.21"/>
</g>
<!-- [root] local.input_length (expand) -->
<g id="node8" class="node">
<title>[root] local.input_length (expand)</title>
<ellipse fill="none" stroke="black" cx="1076.99" cy="-378" rx="165.97" ry="18"/>
<text text-anchor="middle" x="1076.99" y="-374.3" font-family="Times,serif" font-size="14.00">[root] local.input_length (expand)</text>
</g>
<!-- [root] local.input_length (expand)&#45;&gt;[root] local.input_list (expand) -->
<g id="edge2" class="edge">
<title>[root] local.input_length (expand)&#45;&gt;[root] local.input_list (expand)</title>
<path fill="none" stroke="black" d="M1074.73,-359.77C1071.2,-339.78 1062.53,-307.11 1041.99,-288 1023.4,-270.71 999.25,-259.06 975.02,-251.21"/>
<polygon fill="black" stroke="black" points="975.96,-247.84 965.38,-248.28 973.93,-254.54 975.96,-247.84"/>
</g>
<!-- [root] output.file_path (expand) -->
<g id="node9" class="node">
<title>[root] output.file_path (expand)</title>
<ellipse fill="none" stroke="black" cx="155.99" cy="-450" rx="155.97" ry="18"/>
<text text-anchor="middle" x="155.99" y="-446.3" font-family="Times,serif" font-size="14.00">[root] output.file_path (expand)</text>
</g>
<!-- [root] output.file_path (expand)&#45;&gt;[root] local_file.input_data (expand) -->
<g id="edge6" class="edge">
<title>[root] output.file_path (expand)&#45;&gt;[root] local_file.input_data (expand)</title>
<path fill="none" stroke="black" d="M230.42,-434.15C285.21,-423.23 359.93,-408.33 417.89,-396.77"/>
<polygon fill="black" stroke="black" points="418.65,-400.18 427.78,-394.8 417.29,-393.32 418.65,-400.18"/>
</g>
<!-- [root] output.lines_number (expand) -->
<g id="node10" class="node">
<title>[root] output.lines_number (expand)</title>
<ellipse fill="none" stroke="black" cx="1117.99" cy="-450" rx="178.97" ry="18"/>
<text text-anchor="middle" x="1117.99" y="-446.3" font-family="Times,serif" font-size="14.00">[root] output.lines_number (expand)</text>
</g>
<!-- [root] output.lines_number (expand)&#45;&gt;[root] local.input_length (expand) -->
<g id="edge7" class="edge">
<title>[root] output.lines_number (expand)&#45;&gt;[root] local.input_length (expand)</title>
<path fill="none" stroke="black" d="M1107.85,-431.7C1103.13,-423.64 1097.42,-413.89 1092.2,-404.98"/>
<polygon fill="black" stroke="black" points="1095.08,-402.96 1087,-396.1 1089.04,-406.5 1095.08,-402.96"/>
</g>
<!-- [root] provider[&quot;registry.terraform.io/hashicorp/local&quot;] (close) -->
<g id="node11" class="node">
<title>[root] provider[&quot;registry.terraform.io/hashicorp/local&quot;] (close)</title>
<ellipse fill="none" stroke="black" cx="625.99" cy="-450" rx="295.95" ry="18"/>
<text text-anchor="middle" x="625.99" y="-446.3" font-family="Times,serif" font-size="14.00">[root] provider[&quot;registry.terraform.io/hashicorp/local&quot;] (close)</text>
</g>
<!-- [root] provider[&quot;registry.terraform.io/hashicorp/local&quot;] (close)&#45;&gt;[root] local_file.input_data (expand) -->
<g id="edge8" class="edge">
<title>[root] provider[&quot;registry.terraform.io/hashicorp/local&quot;] (close)&#45;&gt;[root] local_file.input_data (expand)</title>
<path fill="none" stroke="black" d="M597.18,-432.05C581.51,-422.84 561.93,-411.32 545.02,-401.37"/>
<polygon fill="black" stroke="black" points="546.33,-398.09 535.94,-396.03 542.78,-404.12 546.33,-398.09"/>
</g>
<!-- [root] provider[&quot;registry.terraform.io/hashicorp/random&quot;] (close) -->
<g id="node12" class="node">
<title>[root] provider[&quot;registry.terraform.io/hashicorp/random&quot;] (close)</title>
<ellipse fill="none" stroke="black" cx="1349.99" cy="-234" rx="309.25" ry="18"/>
<text text-anchor="middle" x="1349.99" y="-230.3" font-family="Times,serif" font-size="14.00">[root] provider[&quot;registry.terraform.io/hashicorp/random&quot;] (close)</text>
</g>
<!-- [root] provider[&quot;registry.terraform.io/hashicorp/random&quot;] (close)&#45;&gt;[root] random_string.random_string (expand) -->
<g id="edge9" class="edge">
<title>[root] provider[&quot;registry.terraform.io/hashicorp/random&quot;] (close)&#45;&gt;[root] random_string.random_string (expand)</title>
<path fill="none" stroke="black" d="M1292.74,-216.23C1258.66,-206.25 1215.2,-193.52 1179.33,-183.02"/>
<polygon fill="black" stroke="black" points="1180.01,-179.57 1169.43,-180.12 1178.04,-186.29 1180.01,-179.57"/>
</g>
<!-- [root] root -->
<g id="node13" class="node">
<title>[root] root</title>
<ellipse fill="none" stroke="black" cx="871.99" cy="-522" rx="58.49" ry="18"/>
<text text-anchor="middle" x="871.99" y="-518.3" font-family="Times,serif" font-size="14.00">[root] root</text>
</g>
<!-- [root] root&#45;&gt;[root] output.file_path (expand) -->
<g id="edge12" class="edge">
<title>[root] root&#45;&gt;[root] output.file_path (expand)</title>
<path fill="none" stroke="black" d="M816.84,-515.82C717.62,-506.47 502.44,-486.07 320.99,-468 307.02,-466.61 292.38,-465.13 277.85,-463.65"/>
<polygon fill="black" stroke="black" points="278.11,-460.16 267.81,-462.62 277.4,-467.12 278.11,-460.16"/>
</g>
<!-- [root] root&#45;&gt;[root] output.lines_number (expand) -->
<g id="edge13" class="edge">
<title>[root] root&#45;&gt;[root] output.lines_number (expand)</title>
<path fill="none" stroke="black" d="M913.44,-509.2C951.12,-498.48 1007.39,-482.47 1051.37,-469.96"/>
<polygon fill="black" stroke="black" points="1052.47,-473.28 1061.13,-467.18 1050.55,-466.55 1052.47,-473.28"/>
</g>
<!-- [root] root&#45;&gt;[root] provider[&quot;registry.terraform.io/hashicorp/local&quot;] (close) -->
<g id="edge14" class="edge">
<title>[root] root&#45;&gt;[root] provider[&quot;registry.terraform.io/hashicorp/local&quot;] (close)</title>
<path fill="none" stroke="black" d="M830.53,-509.2C793.36,-498.63 738.1,-482.9 694.39,-470.46"/>
<polygon fill="black" stroke="black" points="695.26,-467.07 684.68,-467.7 693.34,-473.81 695.26,-467.07"/>
</g>
<!-- [root] root&#45;&gt;[root] provider[&quot;registry.terraform.io/hashicorp/random&quot;] (close) -->
<g id="edge15" class="edge">
<title>[root] root&#45;&gt;[root] provider[&quot;registry.terraform.io/hashicorp/random&quot;] (close)</title>
<path fill="none" stroke="black" d="M929.14,-517.74C1040.69,-510.85 1278.95,-493.33 1305.99,-468 1363.24,-414.36 1359.63,-311.45 1354.05,-262.36"/>
<polygon fill="black" stroke="black" points="1357.49,-261.67 1352.78,-252.19 1350.55,-262.55 1357.49,-261.67"/>
</g>
</g>
</svg>
