<?xml version="1.0" encoding="UTF-8" standalone="no"?>
<!DOCTYPE svg PUBLIC "-//W3C//DTD SVG 1.1//EN"
 "http://www.w3.org/Graphics/SVG/1.1/DTD/svg11.dtd">
<!-- Generated by graphviz version 2.43.0 (0)
 -->
<!-- Title: %3 Pages: 1 -->
<svg width="1139pt" height="332pt"
 viewBox="0.00 0.00 1138.59 332.00" xmlns="http://www.w3.org/2000/svg" xmlns:xlink="http://www.w3.org/1999/xlink">
<g id="graph0" class="graph" transform="scale(1 1) rotate(0) translate(4 328)">
<title>%3</title>
<polygon fill="white" stroke="transparent" points="-4,4 -4,-328 1134.59,-328 1134.59,4 -4,4"/>
<!-- [root] google_dataproc_workflow_template.dataproc_workflow_template (expand) -->
<g id="node1" class="node">
<title>[root] google_dataproc_workflow_template.dataproc_workflow_template (expand)</title>
<polygon fill="none" stroke="black" points="1068.26,-180 583.26,-180 583.26,-144 1068.26,-144 1068.26,-180"/>
<text text-anchor="middle" x="825.76" y="-158.3" font-family="Times,serif" font-size="14.00">google_dataproc_workflow_template.dataproc_workflow_template</text>
</g>
<!-- [root] google_project_service.dataproc&#45;service (expand) -->
<g id="node2" class="node">
<title>[root] google_project_service.dataproc&#45;service (expand)</title>
<polygon fill="none" stroke="black" points="709.76,-108 407.76,-108 407.76,-72 709.76,-72 709.76,-108"/>
<text text-anchor="middle" x="558.76" y="-86.3" font-family="Times,serif" font-size="14.00">google_project_service.dataproc&#45;service</text>
</g>
<!-- [root] google_dataproc_workflow_template.dataproc_workflow_template (expand)&#45;&gt;[root] google_project_service.dataproc&#45;service (expand) -->
<g id="edge1" class="edge">
<title>[root] google_dataproc_workflow_template.dataproc_workflow_template (expand)&#45;&gt;[root] google_project_service.dataproc&#45;service (expand)</title>
<path fill="none" stroke="black" d="M760.79,-143.97C722.43,-133.91 673.71,-121.14 633.73,-110.65"/>
<polygon fill="black" stroke="black" points="634.59,-107.26 624.03,-108.11 632.82,-114.03 634.59,-107.26"/>
</g>
<!-- [root] var.py_file -->
<g id="node5" class="node">
<title>[root] var.py_file</title>
<polygon fill="none" stroke="black" points="811.26,-108 728.26,-108 728.26,-72 817.26,-72 817.26,-102 811.26,-108"/>
<polyline fill="none" stroke="black" points="811.26,-108 811.26,-102 "/>
<polyline fill="none" stroke="black" points="817.26,-102 811.26,-102 "/>
<text text-anchor="middle" x="772.76" y="-86.3" font-family="Times,serif" font-size="14.00">var.py_file</text>
</g>
<!-- [root] google_dataproc_workflow_template.dataproc_workflow_template (expand)&#45;&gt;[root] var.py_file -->
<g id="edge2" class="edge">
<title>[root] google_dataproc_workflow_template.dataproc_workflow_template (expand)&#45;&gt;[root] var.py_file</title>
<path fill="none" stroke="black" d="M812.66,-143.7C806.37,-135.39 798.72,-125.28 791.8,-116.14"/>
<polygon fill="black" stroke="black" points="794.54,-113.96 785.72,-108.1 788.96,-118.19 794.54,-113.96"/>
</g>
<!-- [root] var.region -->
<g id="node6" class="node">
<title>[root] var.region</title>
<polygon fill="none" stroke="black" points="918.26,-108 835.26,-108 835.26,-72 924.26,-72 924.26,-102 918.26,-108"/>
<polyline fill="none" stroke="black" points="918.26,-108 918.26,-102 "/>
<polyline fill="none" stroke="black" points="924.26,-102 918.26,-102 "/>
<text text-anchor="middle" x="879.76" y="-86.3" font-family="Times,serif" font-size="14.00">var.region</text>
</g>
<!-- [root] google_dataproc_workflow_template.dataproc_workflow_template (expand)&#45;&gt;[root] var.region -->
<g id="edge3" class="edge">
<title>[root] google_dataproc_workflow_template.dataproc_workflow_template (expand)&#45;&gt;[root] var.region</title>
<path fill="none" stroke="black" d="M839.11,-143.7C845.52,-135.39 853.32,-125.28 860.37,-116.14"/>
<polygon fill="black" stroke="black" points="863.23,-118.16 866.57,-108.1 857.69,-113.88 863.23,-118.16"/>
</g>
<!-- [root] var.staging_bucket -->
<g id="node7" class="node">
<title>[root] var.staging_bucket</title>
<polygon fill="none" stroke="black" points="1087.26,-108 942.26,-108 942.26,-72 1093.26,-72 1093.26,-102 1087.26,-108"/>
<polyline fill="none" stroke="black" points="1087.26,-108 1087.26,-102 "/>
<polyline fill="none" stroke="black" points="1093.26,-102 1087.26,-102 "/>
<text text-anchor="middle" x="1017.76" y="-86.3" font-family="Times,serif" font-size="14.00">var.staging_bucket</text>
</g>
<!-- [root] google_dataproc_workflow_template.dataproc_workflow_template (expand)&#45;&gt;[root] var.staging_bucket -->
<g id="edge4" class="edge">
<title>[root] google_dataproc_workflow_template.dataproc_workflow_template (expand)&#45;&gt;[root] var.staging_bucket</title>
<path fill="none" stroke="black" d="M872.73,-143.88C899.45,-134.14 933.09,-121.87 961.24,-111.61"/>
<polygon fill="black" stroke="black" points="962.75,-114.78 970.95,-108.07 960.35,-108.21 962.75,-114.78"/>
</g>
<!-- [root] provider[&quot;registry.terraform.io/hashicorp/google&quot;] -->
<g id="node3" class="node">
<title>[root] provider[&quot;registry.terraform.io/hashicorp/google&quot;]</title>
<polygon fill="none" stroke="black" points="343.76,-36 0.24,-18 343.76,0 687.29,-18 343.76,-36"/>
<text text-anchor="middle" x="343.76" y="-14.3" font-family="Times,serif" font-size="14.00">provider[&quot;registry.terraform.io/hashicorp/google&quot;]</text>
</g>
<!-- [root] google_project_service.dataproc&#45;service (expand)&#45;&gt;[root] provider[&quot;registry.terraform.io/hashicorp/google&quot;] -->
<g id="edge5" class="edge">
<title>[root] google_project_service.dataproc&#45;service (expand)&#45;&gt;[root] provider[&quot;registry.terraform.io/hashicorp/google&quot;]</title>
<path fill="none" stroke="black" d="M506.44,-71.97C473.75,-61.32 431.71,-47.63 398.56,-36.84"/>
<polygon fill="black" stroke="black" points="399.61,-33.5 389.02,-33.73 397.45,-40.16 399.61,-33.5"/>
</g>
<!-- [root] var.project_name -->
<g id="node4" class="node">
<title>[root] var.project_name</title>
<polygon fill="none" stroke="black" points="838.26,-36 705.26,-36 705.26,0 844.26,0 844.26,-30 838.26,-36"/>
<polyline fill="none" stroke="black" points="838.26,-36 838.26,-30 "/>
<polyline fill="none" stroke="black" points="844.26,-30 838.26,-30 "/>
<text text-anchor="middle" x="774.76" y="-14.3" font-family="Times,serif" font-size="14.00">var.project_name</text>
</g>
<!-- [root] google_project_service.dataproc&#45;service (expand)&#45;&gt;[root] var.project_name -->
<g id="edge6" class="edge">
<title>[root] google_project_service.dataproc&#45;service (expand)&#45;&gt;[root] var.project_name</title>
<path fill="none" stroke="black" d="M611.33,-71.97C641.77,-62.1 680.28,-49.62 712.26,-39.25"/>
<polygon fill="black" stroke="black" points="713.53,-42.52 721.97,-36.11 711.37,-35.86 713.53,-42.52"/>
</g>
<!-- [root] provider[&quot;registry.terraform.io/hashicorp/google&quot;] (close) -->
<g id="node8" class="node">
<title>[root] provider[&quot;registry.terraform.io/hashicorp/google&quot;] (close)</title>
<ellipse fill="none" stroke="black" cx="825.76" cy="-234" rx="304.65" ry="18"/>
<text text-anchor="middle" x="825.76" y="-230.3" font-family="Times,serif" font-size="14.00">[root] provider[&quot;registry.terraform.io/hashicorp/google&quot;] (close)</text>
</g>
<!-- [root] provider[&quot;registry.terraform.io/hashicorp/google&quot;] (close)&#45;&gt;[root] google_dataproc_workflow_template.dataproc_workflow_template (expand) -->
<g id="edge7" class="edge">
<title>[root] provider[&quot;registry.terraform.io/hashicorp/google&quot;] (close)&#45;&gt;[root] google_dataproc_workflow_template.dataproc_workflow_template (expand)</title>
<path fill="none" stroke="black" d="M825.76,-215.7C825.76,-207.98 825.76,-198.71 825.76,-190.11"/>
<polygon fill="black" stroke="black" points="829.26,-190.1 825.76,-180.1 822.26,-190.1 829.26,-190.1"/>
</g>
<!-- [root] root -->
<g id="node9" class="node">
<title>[root] root</title>
<ellipse fill="none" stroke="black" cx="825.76" cy="-306" rx="58.49" ry="18"/>
<text text-anchor="middle" x="825.76" y="-302.3" font-family="Times,serif" font-size="14.00">[root] root</text>
</g>
<!-- [root] root&#45;&gt;[root] provider[&quot;registry.terraform.io/hashicorp/google&quot;] (close) -->
<g id="edge8" class="edge">
<title>[root] root&#45;&gt;[root] provider[&quot;registry.terraform.io/hashicorp/google&quot;] (close)</title>
<path fill="none" stroke="black" d="M825.76,-287.7C825.76,-279.98 825.76,-270.71 825.76,-262.11"/>
<polygon fill="black" stroke="black" points="829.26,-262.1 825.76,-252.1 822.26,-262.1 829.26,-262.1"/>
</g>
</g>
</svg>
