<?xml version="1.0" encoding="UTF-8" standalone="no"?>
<!DOCTYPE svg PUBLIC "-//W3C//DTD SVG 1.1//EN"
 "http://www.w3.org/Graphics/SVG/1.1/DTD/svg11.dtd">
<!-- Generated by graphviz version 2.43.0 (0)
 -->
<!-- Title: %3 Pages: 1 -->
<svg width="1200pt" height="404pt"
 viewBox="0.00 0.00 1200.32 404.00" xmlns="http://www.w3.org/2000/svg" xmlns:xlink="http://www.w3.org/1999/xlink">
<g id="graph0" class="graph" transform="scale(1 1) rotate(0) translate(4 400)">
<title>%3</title>
<polygon fill="white" stroke="transparent" points="-4,4 -4,-400 1196.32,-400 1196.32,4 -4,4"/>
<!-- [root] google_container_cluster.primary (expand) -->
<g id="node1" class="node">
<title>[root] google_container_cluster.primary (expand)</title>
<polygon fill="none" stroke="black" points="627.5,-180 373.5,-180 373.5,-144 627.5,-144 627.5,-180"/>
<text text-anchor="middle" x="500.5" y="-158.3" font-family="Times,serif" font-size="14.00">google_container_cluster.primary</text>
</g>
<!-- [root] google_project_iam_member.serviceUsage (expand) -->
<g id="node3" class="node">
<title>[root] google_project_iam_member.serviceUsage (expand)</title>
<polygon fill="none" stroke="black" points="660,-108 341,-108 341,-72 660,-72 660,-108"/>
<text text-anchor="middle" x="500.5" y="-86.3" font-family="Times,serif" font-size="14.00">google_project_iam_member.serviceUsage</text>
</g>
<!-- [root] google_container_cluster.primary (expand)&#45;&gt;[root] google_project_iam_member.serviceUsage (expand) -->
<g id="edge1" class="edge">
<title>[root] google_container_cluster.primary (expand)&#45;&gt;[root] google_project_iam_member.serviceUsage (expand)</title>
<path fill="none" stroke="black" d="M500.5,-143.7C500.5,-135.98 500.5,-126.71 500.5,-118.11"/>
<polygon fill="black" stroke="black" points="504,-118.1 500.5,-108.1 497,-118.1 504,-118.1"/>
</g>
<!-- [root] google_project_service.gke&#45;service (expand) -->
<g id="node4" class="node">
<title>[root] google_project_service.gke&#45;service (expand)</title>
<polygon fill="none" stroke="black" points="322.5,-108 58.5,-108 58.5,-72 322.5,-72 322.5,-108"/>
<text text-anchor="middle" x="190.5" y="-86.3" font-family="Times,serif" font-size="14.00">google_project_service.gke&#45;service</text>
</g>
<!-- [root] google_container_cluster.primary (expand)&#45;&gt;[root] google_project_service.gke&#45;service (expand) -->
<g id="edge2" class="edge">
<title>[root] google_container_cluster.primary (expand)&#45;&gt;[root] google_project_service.gke&#45;service (expand)</title>
<path fill="none" stroke="black" d="M425.06,-143.97C379.97,-133.78 322.55,-120.82 275.81,-110.26"/>
<polygon fill="black" stroke="black" points="276.53,-106.84 266.01,-108.05 274.99,-113.67 276.53,-106.84"/>
</g>
<!-- [root] var.region -->
<g id="node10" class="node">
<title>[root] var.region</title>
<polygon fill="none" stroke="black" points="761,-108 678,-108 678,-72 767,-72 767,-102 761,-108"/>
<polyline fill="none" stroke="black" points="761,-108 761,-102 "/>
<polyline fill="none" stroke="black" points="767,-102 761,-102 "/>
<text text-anchor="middle" x="722.5" y="-86.3" font-family="Times,serif" font-size="14.00">var.region</text>
</g>
<!-- [root] google_container_cluster.primary (expand)&#45;&gt;[root] var.region -->
<g id="edge3" class="edge">
<title>[root] google_container_cluster.primary (expand)&#45;&gt;[root] var.region</title>
<path fill="none" stroke="black" d="M555.33,-143.9C586.09,-134.29 625.4,-121.97 668.2,-108.4"/>
<polygon fill="black" stroke="black" points="669.5,-111.66 677.97,-105.31 667.38,-104.99 669.5,-111.66"/>
</g>
<!-- [root] google_container_node_pool.primary_preemptible_nodes (expand) -->
<g id="node2" class="node">
<title>[root] google_container_node_pool.primary_preemptible_nodes (expand)</title>
<polygon fill="none" stroke="black" points="1152.5,-252 732.5,-252 732.5,-216 1152.5,-216 1152.5,-252"/>
<text text-anchor="middle" x="942.5" y="-230.3" font-family="Times,serif" font-size="14.00">google_container_node_pool.primary_preemptible_nodes</text>
</g>
<!-- [root] google_container_node_pool.primary_preemptible_nodes (expand)&#45;&gt;[root] google_container_cluster.primary (expand) -->
<g id="edge4" class="edge">
<title>[root] google_container_node_pool.primary_preemptible_nodes (expand)&#45;&gt;[root] google_container_cluster.primary (expand)</title>
<path fill="none" stroke="black" d="M834.94,-215.97C769.44,-205.59 685.69,-192.33 618.39,-181.67"/>
<polygon fill="black" stroke="black" points="618.58,-178.16 608.16,-180.05 617.49,-185.07 618.58,-178.16"/>
</g>
<!-- [root] var.machine_type -->
<g id="node6" class="node">
<title>[root] var.machine_type</title>
<polygon fill="none" stroke="black" points="838,-180 703,-180 703,-144 844,-144 844,-174 838,-180"/>
<polyline fill="none" stroke="black" points="838,-180 838,-174 "/>
<polyline fill="none" stroke="black" points="844,-174 838,-174 "/>
<text text-anchor="middle" x="773.5" y="-158.3" font-family="Times,serif" font-size="14.00">var.machine_type</text>
</g>
<!-- [root] google_container_node_pool.primary_preemptible_nodes (expand)&#45;&gt;[root] var.machine_type -->
<g id="edge5" class="edge">
<title>[root] google_container_node_pool.primary_preemptible_nodes (expand)&#45;&gt;[root] var.machine_type</title>
<path fill="none" stroke="black" d="M901.16,-215.88C877.95,-206.26 848.81,-194.19 824.23,-184.01"/>
<polygon fill="black" stroke="black" points="825.29,-180.66 814.71,-180.07 822.61,-187.13 825.29,-180.66"/>
</g>
<!-- [root] var.max_node_count -->
<g id="node7" class="node">
<title>[root] var.max_node_count</title>
<polygon fill="none" stroke="black" points="1017,-180 862,-180 862,-144 1023,-144 1023,-174 1017,-180"/>
<polyline fill="none" stroke="black" points="1017,-180 1017,-174 "/>
<polyline fill="none" stroke="black" points="1023,-174 1017,-174 "/>
<text text-anchor="middle" x="942.5" y="-158.3" font-family="Times,serif" font-size="14.00">var.max_node_count</text>
</g>
<!-- [root] google_container_node_pool.primary_preemptible_nodes (expand)&#45;&gt;[root] var.max_node_count -->
<g id="edge6" class="edge">
<title>[root] google_container_node_pool.primary_preemptible_nodes (expand)&#45;&gt;[root] var.max_node_count</title>
<path fill="none" stroke="black" d="M942.5,-215.7C942.5,-207.98 942.5,-198.71 942.5,-190.11"/>
<polygon fill="black" stroke="black" points="946,-190.1 942.5,-180.1 939,-190.1 946,-190.1"/>
</g>
<!-- [root] var.preemptible -->
<g id="node8" class="node">
<title>[root] var.preemptible</title>
<polygon fill="none" stroke="black" points="1165.5,-180 1041.5,-180 1041.5,-144 1171.5,-144 1171.5,-174 1165.5,-180"/>
<polyline fill="none" stroke="black" points="1165.5,-180 1165.5,-174 "/>
<polyline fill="none" stroke="black" points="1171.5,-174 1165.5,-174 "/>
<text text-anchor="middle" x="1106.5" y="-158.3" font-family="Times,serif" font-size="14.00">var.preemptible</text>
</g>
<!-- [root] google_container_node_pool.primary_preemptible_nodes (expand)&#45;&gt;[root] var.preemptible -->
<g id="edge7" class="edge">
<title>[root] google_container_node_pool.primary_preemptible_nodes (expand)&#45;&gt;[root] var.preemptible</title>
<path fill="none" stroke="black" d="M982.62,-215.88C1005.14,-206.26 1033.42,-194.19 1057.27,-184.01"/>
<polygon fill="black" stroke="black" points="1058.69,-187.21 1066.51,-180.07 1055.94,-180.77 1058.69,-187.21"/>
</g>
<!-- [root] provider[&quot;registry.terraform.io/hashicorp/google&quot;] -->
<g id="node5" class="node">
<title>[root] provider[&quot;registry.terraform.io/hashicorp/google&quot;]</title>
<polygon fill="none" stroke="black" points="500.5,-36 156.97,-18 500.5,0 844.03,-18 500.5,-36"/>
<text text-anchor="middle" x="500.5" y="-14.3" font-family="Times,serif" font-size="14.00">provider[&quot;registry.terraform.io/hashicorp/google&quot;]</text>
</g>
<!-- [root] google_project_iam_member.serviceUsage (expand)&#45;&gt;[root] provider[&quot;registry.terraform.io/hashicorp/google&quot;] -->
<g id="edge8" class="edge">
<title>[root] google_project_iam_member.serviceUsage (expand)&#45;&gt;[root] provider[&quot;registry.terraform.io/hashicorp/google&quot;]</title>
<path fill="none" stroke="black" d="M500.5,-71.7C500.5,-63.98 500.5,-54.71 500.5,-46.11"/>
<polygon fill="black" stroke="black" points="504,-46.1 500.5,-36.1 497,-46.1 504,-46.1"/>
</g>
<!-- [root] var.project_name -->
<g id="node9" class="node">
<title>[root] var.project_name</title>
<polygon fill="none" stroke="black" points="133,-36 0,-36 0,0 139,0 139,-30 133,-36"/>
<polyline fill="none" stroke="black" points="133,-36 133,-30 "/>
<polyline fill="none" stroke="black" points="139,-30 133,-30 "/>
<text text-anchor="middle" x="69.5" y="-14.3" font-family="Times,serif" font-size="14.00">var.project_name</text>
</g>
<!-- [root] google_project_iam_member.serviceUsage (expand)&#45;&gt;[root] var.project_name -->
<g id="edge9" class="edge">
<title>[root] google_project_iam_member.serviceUsage (expand)&#45;&gt;[root] var.project_name</title>
<path fill="none" stroke="black" d="M373.54,-71.99C308.96,-62.84 229.03,-50.76 149.41,-36.3"/>
<polygon fill="black" stroke="black" points="149.66,-32.78 139.2,-34.43 148.4,-39.67 149.66,-32.78"/>
</g>
<!-- [root] var.service_account -->
<g id="node11" class="node">
<title>[root] var.service_account</title>
<polygon fill="none" stroke="black" points="1012.5,-36 862.5,-36 862.5,0 1018.5,0 1018.5,-30 1012.5,-36"/>
<polyline fill="none" stroke="black" points="1012.5,-36 1012.5,-30 "/>
<polyline fill="none" stroke="black" points="1018.5,-30 1012.5,-30 "/>
<text text-anchor="middle" x="940.5" y="-14.3" font-family="Times,serif" font-size="14.00">var.service_account</text>
</g>
<!-- [root] google_project_iam_member.serviceUsage (expand)&#45;&gt;[root] var.service_account -->
<g id="edge10" class="edge">
<title>[root] google_project_iam_member.serviceUsage (expand)&#45;&gt;[root] var.service_account</title>
<path fill="none" stroke="black" d="M622.83,-71.98C688.21,-62.56 770.31,-50.22 852.28,-36.17"/>
<polygon fill="black" stroke="black" points="853.01,-39.6 862.28,-34.45 851.83,-32.7 853.01,-39.6"/>
</g>
<!-- [root] google_project_service.gke&#45;service (expand)&#45;&gt;[root] provider[&quot;registry.terraform.io/hashicorp/google&quot;] -->
<g id="edge11" class="edge">
<title>[root] google_project_service.gke&#45;service (expand)&#45;&gt;[root] provider[&quot;registry.terraform.io/hashicorp/google&quot;]</title>
<path fill="none" stroke="black" d="M265.94,-71.97C315.74,-60.72 380.57,-46.08 429.45,-35.04"/>
<polygon fill="black" stroke="black" points="430.33,-38.43 439.31,-32.82 428.79,-31.61 430.33,-38.43"/>
</g>
<!-- [root] google_project_service.gke&#45;service (expand)&#45;&gt;[root] var.project_name -->
<g id="edge12" class="edge">
<title>[root] google_project_service.gke&#45;service (expand)&#45;&gt;[root] var.project_name</title>
<path fill="none" stroke="black" d="M160.9,-71.88C144.93,-62.64 125.04,-51.13 107.89,-41.21"/>
<polygon fill="black" stroke="black" points="109.62,-38.17 99.21,-36.19 106.12,-44.23 109.62,-38.17"/>
</g>
<!-- [root] output.cluster_ca_certificate (expand) -->
<g id="node12" class="node">
<title>[root] output.cluster_ca_certificate (expand)</title>
<ellipse fill="none" stroke="black" cx="500.5" cy="-234" rx="214.46" ry="18"/>
<text text-anchor="middle" x="500.5" y="-230.3" font-family="Times,serif" font-size="14.00">[root] output.cluster_ca_certificate (expand)</text>
</g>
<!-- [root] output.cluster_ca_certificate (expand)&#45;&gt;[root] google_container_cluster.primary (expand) -->
<g id="edge13" class="edge">
<title>[root] output.cluster_ca_certificate (expand)&#45;&gt;[root] google_container_cluster.primary (expand)</title>
<path fill="none" stroke="black" d="M500.5,-215.7C500.5,-207.98 500.5,-198.71 500.5,-190.11"/>
<polygon fill="black" stroke="black" points="504,-190.1 500.5,-180.1 497,-190.1 504,-190.1"/>
</g>
<!-- [root] output.endpoint (expand) -->
<g id="node13" class="node">
<title>[root] output.endpoint (expand)</title>
<ellipse fill="none" stroke="black" cx="287.5" cy="-306" rx="157.07" ry="18"/>
<text text-anchor="middle" x="287.5" y="-302.3" font-family="Times,serif" font-size="14.00">[root] output.endpoint (expand)</text>
</g>
<!-- [root] output.endpoint (expand)&#45;&gt;[root] google_container_cluster.primary (expand) -->
<g id="edge14" class="edge">
<title>[root] output.endpoint (expand)&#45;&gt;[root] google_container_cluster.primary (expand)</title>
<path fill="none" stroke="black" d="M279.03,-287.95C270.67,-268.42 261.3,-236.5 277.5,-216 289.5,-200.82 324.57,-189.52 363.44,-181.35"/>
<polygon fill="black" stroke="black" points="364.29,-184.75 373.4,-179.34 362.9,-177.89 364.29,-184.75"/>
</g>
<!-- [root] provider[&quot;registry.terraform.io/hashicorp/google&quot;] (close) -->
<g id="node14" class="node">
<title>[root] provider[&quot;registry.terraform.io/hashicorp/google&quot;] (close)</title>
<ellipse fill="none" stroke="black" cx="887.5" cy="-306" rx="304.65" ry="18"/>
<text text-anchor="middle" x="887.5" y="-302.3" font-family="Times,serif" font-size="14.00">[root] provider[&quot;registry.terraform.io/hashicorp/google&quot;] (close)</text>
</g>
<!-- [root] provider[&quot;registry.terraform.io/hashicorp/google&quot;] (close)&#45;&gt;[root] google_container_node_pool.primary_preemptible_nodes (expand) -->
<g id="edge15" class="edge">
<title>[root] provider[&quot;registry.terraform.io/hashicorp/google&quot;] (close)&#45;&gt;[root] google_container_node_pool.primary_preemptible_nodes (expand)</title>
<path fill="none" stroke="black" d="M901.1,-287.7C907.62,-279.39 915.57,-269.28 922.75,-260.14"/>
<polygon fill="black" stroke="black" points="925.63,-262.13 929.06,-252.1 920.13,-257.81 925.63,-262.13"/>
</g>
<!-- [root] root -->
<g id="node15" class="node">
<title>[root] root</title>
<ellipse fill="none" stroke="black" cx="500.5" cy="-378" rx="58.49" ry="18"/>
<text text-anchor="middle" x="500.5" y="-374.3" font-family="Times,serif" font-size="14.00">[root] root</text>
</g>
<!-- [root] root&#45;&gt;[root] output.cluster_ca_certificate (expand) -->
<g id="edge16" class="edge">
<title>[root] root&#45;&gt;[root] output.cluster_ca_certificate (expand)</title>
<path fill="none" stroke="black" d="M500.5,-359.87C500.5,-335.67 500.5,-291.21 500.5,-262.39"/>
<polygon fill="black" stroke="black" points="504,-262.19 500.5,-252.19 497,-262.19 504,-262.19"/>
</g>
<!-- [root] root&#45;&gt;[root] output.endpoint (expand) -->
<g id="edge17" class="edge">
<title>[root] root&#45;&gt;[root] output.endpoint (expand)</title>
<path fill="none" stroke="black" d="M461.93,-364.32C429.68,-353.73 383.18,-338.44 346.3,-326.32"/>
<polygon fill="black" stroke="black" points="347.25,-322.95 336.66,-323.16 345.07,-329.6 347.25,-322.95"/>
</g>
<!-- [root] root&#45;&gt;[root] provider[&quot;registry.terraform.io/hashicorp/google&quot;] (close) -->
<g id="edge18" class="edge">
<title>[root] root&#45;&gt;[root] provider[&quot;registry.terraform.io/hashicorp/google&quot;] (close)</title>
<path fill="none" stroke="black" d="M549.51,-368.13C609.08,-357.36 711.08,-338.91 787.48,-325.09"/>
<polygon fill="black" stroke="black" points="788.39,-328.48 797.61,-323.26 787.15,-321.59 788.39,-328.48"/>
</g>
</g>
</svg>
