<?xml version="1.0" encoding="UTF-8" standalone="no"?>
<!DOCTYPE svg PUBLIC "-//W3C//DTD SVG 1.1//EN"
 "http://www.w3.org/Graphics/SVG/1.1/DTD/svg11.dtd">
<!-- Generated by graphviz version 2.50.0 (20211204.2007)
 -->
<!-- Pages: 1 -->
<svg width="910pt" height="548pt"
 viewBox="0.00 0.00 909.78 548.00" xmlns="http://www.w3.org/2000/svg" xmlns:xlink="http://www.w3.org/1999/xlink">
<g id="graph0" class="graph" transform="scale(1 1) rotate(0) translate(4 544)">
<polygon fill="white" stroke="transparent" points="-4,4 -4,-544 905.78,-544 905.78,4 -4,4"/>
<!-- [root] google_project.tbd_project (expand) -->
<g id="node1" class="node">
<title>[root] google_project.tbd_project (expand)</title>
<polygon fill="none" stroke="black" points="520.06,-252 357.06,-252 357.06,-216 520.06,-216 520.06,-252"/>
<text text-anchor="middle" x="438.56" y="-230.3" font-family="Times,serif" font-size="14.00">google_project.tbd_project</text>
</g>
<!-- [root] provider[&quot;registry.terraform.io/hashicorp/google&quot;] -->
<g id="node8" class="node">
<title>[root] provider[&quot;registry.terraform.io/hashicorp/google&quot;]</title>
<polygon fill="none" stroke="black" points="266.56,-180 -0.06,-162 266.56,-144 533.17,-162 266.56,-180"/>
<text text-anchor="middle" x="266.56" y="-158.3" font-family="Times,serif" font-size="14.00">provider[&quot;registry.terraform.io/hashicorp/google&quot;]</text>
</g>
<!-- [root] google_project.tbd_project (expand)&#45;&gt;[root] provider[&quot;registry.terraform.io/hashicorp/google&quot;] -->
<g id="edge1" class="edge">
<title>[root] google_project.tbd_project (expand)&#45;&gt;[root] provider[&quot;registry.terraform.io/hashicorp/google&quot;]</title>
<path fill="none" stroke="black" d="M396.48,-215.88C370.79,-205.42 337.96,-192.06 311.73,-181.38"/>
<polygon fill="black" stroke="black" points="312.97,-178.11 302.39,-177.58 310.33,-184.59 312.97,-178.11"/>
</g>
<!-- [root] var.billing_account -->
<g id="node9" class="node">
<title>[root] var.billing_account</title>
<polygon fill="none" stroke="black" points="666.06,-180 551.06,-180 551.06,-144 672.06,-144 672.06,-174 666.06,-180"/>
<polyline fill="none" stroke="black" points="666.06,-180 666.06,-174 "/>
<polyline fill="none" stroke="black" points="672.06,-174 666.06,-174 "/>
<text text-anchor="middle" x="611.56" y="-158.3" font-family="Times,serif" font-size="14.00">var.billing_account</text>
</g>
<!-- [root] google_project.tbd_project (expand)&#45;&gt;[root] var.billing_account -->
<g id="edge2" class="edge">
<title>[root] google_project.tbd_project (expand)&#45;&gt;[root] var.billing_account</title>
<path fill="none" stroke="black" d="M480.88,-215.88C504.74,-206.22 534.73,-194.09 559.96,-183.88"/>
<polygon fill="black" stroke="black" points="561.42,-187.06 569.37,-180.07 558.79,-180.57 561.42,-187.06"/>
</g>
<!-- [root] google_project_iam_binding.tbd&#45;editor&#45;binding (expand) -->
<g id="node2" class="node">
<title>[root] google_project_iam_binding.tbd&#45;editor&#45;binding (expand)</title>
<polygon fill="none" stroke="black" points="755.56,-396 479.56,-396 479.56,-360 755.56,-360 755.56,-396"/>
<text text-anchor="middle" x="617.56" y="-374.3" font-family="Times,serif" font-size="14.00">google_project_iam_binding.tbd&#45;editor&#45;binding</text>
</g>
<!-- [root] google_service_account.tbd&#45;terraform (expand) -->
<g id="node4" class="node">
<title>[root] google_service_account.tbd&#45;terraform (expand)</title>
<polygon fill="none" stroke="black" points="637.56,-324 413.56,-324 413.56,-288 637.56,-288 637.56,-324"/>
<text text-anchor="middle" x="525.56" y="-302.3" font-family="Times,serif" font-size="14.00">google_service_account.tbd&#45;terraform</text>
</g>
<!-- [root] google_project_iam_binding.tbd&#45;editor&#45;binding (expand)&#45;&gt;[root] google_service_account.tbd&#45;terraform (expand) -->
<g id="edge3" class="edge">
<title>[root] google_project_iam_binding.tbd&#45;editor&#45;binding (expand)&#45;&gt;[root] google_service_account.tbd&#45;terraform (expand)</title>
<path fill="none" stroke="black" d="M594.81,-359.7C583.12,-350.8 568.69,-339.82 556.05,-330.2"/>
<polygon fill="black" stroke="black" points="558.11,-327.37 548.04,-324.1 553.87,-332.94 558.11,-327.37"/>
</g>
<!-- [root] google_project_service.tbd&#45;service (expand) -->
<g id="node3" class="node">
<title>[root] google_project_service.tbd&#45;service (expand)</title>
<polygon fill="none" stroke="black" points="877.56,-324 671.56,-324 671.56,-288 877.56,-288 877.56,-324"/>
<text text-anchor="middle" x="774.56" y="-302.3" font-family="Times,serif" font-size="14.00">google_project_service.tbd&#45;service</text>
</g>
<!-- [root] google_project_service.tbd&#45;service (expand)&#45;&gt;[root] google_project.tbd_project (expand) -->
<g id="edge4" class="edge">
<title>[root] google_project_service.tbd&#45;service (expand)&#45;&gt;[root] google_project.tbd_project (expand)</title>
<path fill="none" stroke="black" d="M692.79,-287.97C643.62,-277.72 580.93,-264.66 530.1,-254.07"/>
<polygon fill="black" stroke="black" points="530.61,-250.6 520.1,-251.99 529.18,-257.46 530.61,-250.6"/>
</g>
<!-- [root] google_service_account.tbd&#45;terraform (expand)&#45;&gt;[root] google_project.tbd_project (expand) -->
<g id="edge5" class="edge">
<title>[root] google_service_account.tbd&#45;terraform (expand)&#45;&gt;[root] google_project.tbd_project (expand)</title>
<path fill="none" stroke="black" d="M504.05,-287.7C493.09,-278.88 479.61,-268.03 467.73,-258.47"/>
<polygon fill="black" stroke="black" points="469.8,-255.65 459.81,-252.1 465.41,-261.1 469.8,-255.65"/>
</g>
<!-- [root] google_storage_bucket.tbd&#45;state&#45;bucket (expand) -->
<g id="node5" class="node">
<title>[root] google_storage_bucket.tbd&#45;state&#45;bucket (expand)</title>
<polygon fill="none" stroke="black" points="461.06,-396 228.06,-396 228.06,-360 461.06,-360 461.06,-396"/>
<text text-anchor="middle" x="344.56" y="-374.3" font-family="Times,serif" font-size="14.00">google_storage_bucket.tbd&#45;state&#45;bucket</text>
</g>
<!-- [root] google_storage_bucket.tbd&#45;state&#45;bucket (expand)&#45;&gt;[root] google_project.tbd_project (expand) -->
<g id="edge6" class="edge">
<title>[root] google_storage_bucket.tbd&#45;state&#45;bucket (expand)&#45;&gt;[root] google_project.tbd_project (expand)</title>
<path fill="none" stroke="black" d="M355.89,-359.87C372.2,-335.24 402.39,-289.64 421.42,-260.88"/>
<polygon fill="black" stroke="black" points="424.58,-262.46 427.18,-252.19 418.74,-258.6 424.58,-262.46"/>
</g>
<!-- [root] output.project_name -->
<g id="node6" class="node">
<title>[root] output.project_name</title>
<polygon fill="none" stroke="black" points="292.06,-324 169.06,-324 169.06,-288 298.06,-288 298.06,-318 292.06,-324"/>
<polyline fill="none" stroke="black" points="292.06,-324 292.06,-318 "/>
<polyline fill="none" stroke="black" points="298.06,-318 292.06,-318 "/>
<text text-anchor="middle" x="233.56" y="-302.3" font-family="Times,serif" font-size="14.00">output.project_name</text>
</g>
<!-- [root] output.project_name&#45;&gt;[root] google_project.tbd_project (expand) -->
<g id="edge9" class="edge">
<title>[root] output.project_name&#45;&gt;[root] google_project.tbd_project (expand)</title>
<path fill="none" stroke="black" d="M283.44,-287.97C312.21,-278.14 348.56,-265.73 378.84,-255.39"/>
<polygon fill="black" stroke="black" points="380.11,-258.65 388.45,-252.11 377.85,-252.03 380.11,-258.65"/>
</g>
<!-- [root] output.terraform_state_bucket -->
<g id="node7" class="node">
<title>[root] output.terraform_state_bucket</title>
<polygon fill="none" stroke="black" points="403.06,-468 228.06,-468 228.06,-432 409.06,-432 409.06,-462 403.06,-468"/>
<polyline fill="none" stroke="black" points="403.06,-468 403.06,-462 "/>
<polyline fill="none" stroke="black" points="409.06,-462 403.06,-462 "/>
<text text-anchor="middle" x="318.56" y="-446.3" font-family="Times,serif" font-size="14.00">output.terraform_state_bucket</text>
</g>
<!-- [root] output.terraform_state_bucket&#45;&gt;[root] google_storage_bucket.tbd&#45;state&#45;bucket (expand) -->
<g id="edge10" class="edge">
<title>[root] output.terraform_state_bucket&#45;&gt;[root] google_storage_bucket.tbd&#45;state&#45;bucket (expand)</title>
<path fill="none" stroke="black" d="M324.98,-431.7C327.91,-423.81 331.44,-414.3 334.7,-405.55"/>
<polygon fill="black" stroke="black" points="338,-406.7 338.2,-396.1 331.44,-404.26 338,-406.7"/>
</g>
<!-- [root] var.region -->
<g id="node11" class="node">
<title>[root] var.region</title>
<polygon fill="none" stroke="black" points="214.06,-108 149.06,-108 149.06,-72 220.06,-72 220.06,-102 214.06,-108"/>
<polyline fill="none" stroke="black" points="214.06,-108 214.06,-102 "/>
<polyline fill="none" stroke="black" points="220.06,-102 214.06,-102 "/>
<text text-anchor="middle" x="184.56" y="-86.3" font-family="Times,serif" font-size="14.00">var.region</text>
</g>
<!-- [root] provider[&quot;registry.terraform.io/hashicorp/google&quot;]&#45;&gt;[root] var.region -->
<g id="edge15" class="edge">
<title>[root] provider[&quot;registry.terraform.io/hashicorp/google&quot;]&#45;&gt;[root] var.region</title>
<path fill="none" stroke="black" d="M247.95,-145.12C237.43,-136.14 224.07,-124.73 212.33,-114.71"/>
<polygon fill="black" stroke="black" points="214.4,-111.87 204.52,-108.04 209.85,-117.2 214.4,-111.87"/>
</g>
<!-- [root] local.project (expand) -->
<g id="node13" class="node">
<title>[root] local.project (expand)</title>
<ellipse fill="none" stroke="black" cx="348.56" cy="-90" rx="110.48" ry="18"/>
<text text-anchor="middle" x="348.56" y="-86.3" font-family="Times,serif" font-size="14.00">[root] local.project (expand)</text>
</g>
<!-- [root] provider[&quot;registry.terraform.io/hashicorp/google&quot;]&#45;&gt;[root] local.project (expand) -->
<g id="edge14" class="edge">
<title>[root] provider[&quot;registry.terraform.io/hashicorp/google&quot;]&#45;&gt;[root] local.project (expand)</title>
<path fill="none" stroke="black" d="M285.16,-145.12C295.76,-136.07 309.23,-124.57 321.03,-114.49"/>
<polygon fill="black" stroke="black" points="323.55,-116.95 328.88,-107.8 319,-111.63 323.55,-116.95"/>
</g>
<!-- [root] var.group_id -->
<g id="node10" class="node">
<title>[root] var.group_id</title>
<polygon fill="none" stroke="black" points="327.56,-36 247.56,-36 247.56,0 333.56,0 333.56,-30 327.56,-36"/>
<polyline fill="none" stroke="black" points="327.56,-36 327.56,-30 "/>
<polyline fill="none" stroke="black" points="333.56,-30 327.56,-30 "/>
<text text-anchor="middle" x="290.56" y="-14.3" font-family="Times,serif" font-size="14.00">var.group_id</text>
</g>
<!-- [root] var.tbd_semester -->
<g id="node12" class="node">
<title>[root] var.tbd_semester</title>
<polygon fill="none" stroke="black" points="455.06,-36 352.06,-36 352.06,0 461.06,0 461.06,-30 455.06,-36"/>
<polyline fill="none" stroke="black" points="455.06,-36 455.06,-30 "/>
<polyline fill="none" stroke="black" points="461.06,-30 455.06,-30 "/>
<text text-anchor="middle" x="406.56" y="-14.3" font-family="Times,serif" font-size="14.00">var.tbd_semester</text>
</g>
<!-- [root] local.project (expand)&#45;&gt;[root] var.group_id -->
<g id="edge7" class="edge">
<title>[root] local.project (expand)&#45;&gt;[root] var.group_id</title>
<path fill="none" stroke="black" d="M334.52,-72.05C327.57,-63.67 319.04,-53.38 311.35,-44.1"/>
<polygon fill="black" stroke="black" points="313.94,-41.74 304.87,-36.28 308.55,-46.21 313.94,-41.74"/>
</g>
<!-- [root] local.project (expand)&#45;&gt;[root] var.tbd_semester -->
<g id="edge8" class="edge">
<title>[root] local.project (expand)&#45;&gt;[root] var.tbd_semester</title>
<path fill="none" stroke="black" d="M362.6,-72.05C369.55,-63.67 378.07,-53.38 385.76,-44.1"/>
<polygon fill="black" stroke="black" points="388.56,-46.21 392.24,-36.28 383.17,-41.74 388.56,-46.21"/>
</g>
<!-- [root] provider[&quot;registry.terraform.io/hashicorp/google&quot;] (close) -->
<g id="node14" class="node">
<title>[root] provider[&quot;registry.terraform.io/hashicorp/google&quot;] (close)</title>
<ellipse fill="none" stroke="black" cx="664.56" cy="-450" rx="237.46" ry="18"/>
<text text-anchor="middle" x="664.56" y="-446.3" font-family="Times,serif" font-size="14.00">[root] provider[&quot;registry.terraform.io/hashicorp/google&quot;] (close)</text>
</g>
<!-- [root] provider[&quot;registry.terraform.io/hashicorp/google&quot;] (close)&#45;&gt;[root] google_project_iam_binding.tbd&#45;editor&#45;binding (expand) -->
<g id="edge11" class="edge">
<title>[root] provider[&quot;registry.terraform.io/hashicorp/google&quot;] (close)&#45;&gt;[root] google_project_iam_binding.tbd&#45;editor&#45;binding (expand)</title>
<path fill="none" stroke="black" d="M652.94,-431.7C647.42,-423.47 640.71,-413.48 634.62,-404.42"/>
<polygon fill="black" stroke="black" points="637.52,-402.46 629.04,-396.1 631.71,-406.36 637.52,-402.46"/>
</g>
<!-- [root] provider[&quot;registry.terraform.io/hashicorp/google&quot;] (close)&#45;&gt;[root] google_project_service.tbd&#45;service (expand) -->
<g id="edge12" class="edge">
<title>[root] provider[&quot;registry.terraform.io/hashicorp/google&quot;] (close)&#45;&gt;[root] google_project_service.tbd&#45;service (expand)</title>
<path fill="none" stroke="black" d="M717.6,-432.4C735.29,-424.23 753.33,-412.49 764.56,-396 776.83,-377.97 778.65,-352.98 777.8,-334.07"/>
<polygon fill="black" stroke="black" points="781.28,-333.73 777.07,-324.01 774.3,-334.24 781.28,-333.73"/>
</g>
<!-- [root] provider[&quot;registry.terraform.io/hashicorp/google&quot;] (close)&#45;&gt;[root] google_storage_bucket.tbd&#45;state&#45;bucket (expand) -->
<g id="edge13" class="edge">
<title>[root] provider[&quot;registry.terraform.io/hashicorp/google&quot;] (close)&#45;&gt;[root] google_storage_bucket.tbd&#45;state&#45;bucket (expand)</title>
<path fill="none" stroke="black" d="M590.74,-432.85C543.5,-422.52 481.97,-409.06 432.24,-398.18"/>
<polygon fill="black" stroke="black" points="432.98,-394.76 422.46,-396.04 431.49,-401.6 432.98,-394.76"/>
</g>
<!-- [root] root -->
<g id="node15" class="node">
<title>[root] root</title>
<ellipse fill="none" stroke="black" cx="318.56" cy="-522" rx="47.39" ry="18"/>
<text text-anchor="middle" x="318.56" y="-518.3" font-family="Times,serif" font-size="14.00">[root] root</text>
</g>
<!-- [root] root&#45;&gt;[root] output.project_name -->
<g id="edge16" class="edge">
<title>[root] root&#45;&gt;[root] output.project_name</title>
<path fill="none" stroke="black" d="M280.06,-511.3C257.9,-503.52 231.88,-490.14 218.56,-468 193.63,-426.58 209.02,-368.04 221.77,-334.15"/>
<polygon fill="black" stroke="black" points="225.18,-335.06 225.59,-324.47 218.67,-332.49 225.18,-335.06"/>
</g>
<!-- [root] root&#45;&gt;[root] output.terraform_state_bucket -->
<g id="edge17" class="edge">
<title>[root] root&#45;&gt;[root] output.terraform_state_bucket</title>
<path fill="none" stroke="black" d="M318.56,-503.7C318.56,-495.98 318.56,-486.71 318.56,-478.11"/>
<polygon fill="black" stroke="black" points="322.06,-478.1 318.56,-468.1 315.06,-478.1 322.06,-478.1"/>
</g>
<!-- [root] root&#45;&gt;[root] provider[&quot;registry.terraform.io/hashicorp/google&quot;] (close) -->
<g id="edge18" class="edge">
<title>[root] root&#45;&gt;[root] provider[&quot;registry.terraform.io/hashicorp/google&quot;] (close)</title>
<path fill="none" stroke="black" d="M359.61,-512.7C412.5,-501.99 505.9,-483.1 575.44,-469.03"/>
<polygon fill="black" stroke="black" points="576.41,-472.4 585.52,-466.99 575.03,-465.54 576.41,-472.4"/>
</g>
</g>
</svg>
